<svg xmlns="http://www.w3.org/2000/svg" width="800" height="500" viewBox="0 0 800 500"><defs><linearGradient id="g" x1="0" y1="0" x2="1" y2="1"><stop stop-color="#29251b"/><stop offset="1" stop-color="#10151d"/></linearGradient></defs><rect width="800" height="500" fill="url(#g)"/><rect x="70" y="55" width="660" height="390" rx="22" fill="#171c24" stroke="#48402d" stroke-width="2"/><rect x="100" y="85" width="180" height="20" rx="8" fill="#e4bd68"/><rect x="100" y="125" width="600" height="1" fill="#3b414c"/><g fill="#272e39" stroke="#454b55"><rect x="100" y="155" width="600" height="62" rx="10"/><rect x="100" y="232" width="600" height="62" rx="10"/><rect x="100" y="309" width="600" height="62" rx="10"/></g><g fill="none" stroke="#e4bd68" stroke-width="4"><circle cx="127" cy="186" r="10"/><path d="M121 186l5 5 9-12"/><circle cx="127" cy="263" r="10"/><circle cx="127" cy="340" r="10"/></g><g fill="#e7e9ee"><rect x="153" y="176" width="230" height="9" rx="4"/><rect x="153" y="253" width="270" height="9" rx="4"/><rect x="153" y="330" width="190" height="9" rx="4"/></g><g fill="#8f98a6"><rect x="153" y="193" width="150" height="6" rx="3"/><rect x="153" y="270" width="180" height="6" rx="3"/><rect x="153" y="347" width="130" height="6" rx="3"/></g><text x="100" y="420" font-family="Arial,sans-serif" font-size="18" fill="#e4bd68" letter-spacing="3">ACADEMIC PLANNER</text></svg>